<?xml version="1.0" encoding="UTF-8"?>
<svg xmlns="http://www.w3.org/2000/svg" viewBox="0 0 128 128">
  <defs>
    <linearGradient id="g" x1="0" y1="0" x2="1" y2="1">
      <stop offset="0" stop-color="#646cff"/>
      <stop offset="1" stop-color="#3a3ff2"/>
    </linearGradient>
  </defs>
  <rect width="128" height="128" rx="28" fill="#111"/>
  <g transform="translate(14,28)">
    <path fill="url(#g)" d="M90 28c6 0 9-4 9-8 0-5-4-9-9-9-2 0-4 0-6 1-2-7-8-12-15-12-8 0-15 7-15 15 0 1 0 2 .2 3C46 16 37 13 27 13 12 13 0 25 0 40c0 19 18 33 43 33 24 0 41-12 45-29l2-9c0-1 0-2 0-3 0-2 0-3 0-4zm-60 17c4 0 7 3 7 6s-3 6-7 6-7-3-7-6 3-6 7-6z"/>
    <circle cx="62" cy="22" r="3" fill="#fff" opacity=".9"/>
    <path d="M97 12c4 6 3 13-2 17" stroke="#8ea0ff" stroke-width="2" fill="none" stroke-linecap="round"/>
    <path d="M102 9c5 7 4 16-2 22" stroke="#8ea0ff" stroke-width="2" fill="none" stroke-linecap="round"/>
  </g>
</svg>